<svg xmlns="http://www.w3.org/2000/svg" width="1200" height="630" viewBox="0 0 1200 630" role="img" aria-labelledby="title desc">
<title id="title">Linea di gioco</title>
<desc id="desc">Analisi geopolitiche e dossier internazionali</desc>
<defs>
<linearGradient id="bg" x1="0%" y1="0%" x2="100%" y2="100%">
<stop offset="0%" stop-color="#080b10" />
<stop offset="55%" stop-color="#111827" />
<stop offset="100%" stop-color="#1f3a5f" />
</linearGradient>
</defs>
<rect width="1200" height="630" fill="url(#bg)" />
<circle cx="1020" cy="128" r="180" fill="#d7b56d" fill-opacity="0.08" />
<circle cx="164" cy="526" r="220" fill="#9e2a2b" fill-opacity="0.12" />
<path d="M0 134h1200M0 178h1200M0 222h1200M0 266h1200M0 310h1200M0 354h1200M0 398h1200M0 442h1200M0 486h1200M0 530h1200" stroke="#d7b56d" stroke-opacity="0.09" />
<path d="M160 0v630M248 0v630M336 0v630M424 0v630M512 0v630M600 0v630M688 0v630M776 0v630M864 0v630M952 0v630M1040 0v630" stroke="#d7b56d" stroke-opacity="0.07" />
<g fill="none" stroke="#d7b56d">
<rect x="90" y="90" width="1020" height="450" stroke-opacity="0.25" />
<rect x="110" y="110" width="980" height="410" stroke-opacity="0.12" />
</g>
<text x="120" y="176" fill="#d7b56d" font-family="Georgia, 'Times New Roman', serif" font-size="30" letter-spacing="7">LINEA DI GIOCO</text>
<text x="120" y="288" fill="#f3f4f6" font-family="Georgia, 'Times New Roman', serif" font-size="68" font-weight="700">Analisi geopolitiche</text>
<text x="120" y="362" fill="#f3f4f6" font-family="Georgia, 'Times New Roman', serif" font-size="68" font-weight="700">e dossier internazionali</text>
<text x="120" y="448" fill="#b8c2d2" font-family="'Trebuchet MS', Arial, sans-serif" font-size="24">Crisi, sicurezza, energia e scenari globali monitorati</text>
<text x="120" y="484" fill="#b8c2d2" font-family="'Trebuchet MS', Arial, sans-serif" font-size="24">con approccio editoriale e operativo.</text>
</svg>
